<svg xmlns="http://www.w3.org/2000/svg" viewBox="0 0 480 360" width="480" height="360">
  <!-- Mesa de buffet com rechauds e travessas (ilustração própria, criada para as prévias do configurador) -->
  <defs><linearGradient id="w" x1="0" y1="0" x2="0" y2="1"><stop offset="0" stop-color="#f6efe4"/><stop offset="1" stop-color="#ede2d0"/></linearGradient><linearGradient id="f" x1="0" y1="0" x2="0" y2="1"><stop offset="0" stop-color="#b58657"/><stop offset="1" stop-color="#9c6f45"/></linearGradient></defs>
<rect width="480" height="360" fill="url(#w)"/><rect y="262" width="480" height="98" fill="url(#f)"/><path d="M0 262h480" stroke="#00000018" stroke-width="3"/><rect x="30" y="178" width="420" height="84" rx="6" fill="#ffffff"/><path d="M30 196h420" stroke="#eee4d6" stroke-width="3"/><path d="M30 178h420v18c-30 16-60 16-90 0s-60-16-90 0-60 16-90 0-60-16-90 0-30 16-60 0z" fill="#f3ead9"/><g><ellipse cx="100" cy="176" rx="46" ry="10" fill="#b8bdc4"/><path d="M56 176q0-40 44-44q44 4 44 44z" fill="#d7dbe0"/><rect x="94" y="124" width="12" height="10" rx="3" fill="#9aa1aa"/><path d="M70 160q30-20 60 0" stroke="#ffffff" stroke-width="4" fill="none" opacity=".7"/></g><g><ellipse cx="210" cy="176" rx="46" ry="10" fill="#b8bdc4"/><path d="M166 176q0-40 44-44q44 4 44 44z" fill="#d7dbe0"/><rect x="204" y="124" width="12" height="10" rx="3" fill="#9aa1aa"/><path d="M180 160q30-20 60 0" stroke="#ffffff" stroke-width="4" fill="none" opacity=".7"/></g><ellipse cx="320" cy="174" rx="54" ry="12" fill="#e7dccb"/><ellipse cx="292" cy="166" rx="8" ry="6" fill="#d9a55b"/><ellipse cx="306" cy="162" rx="8" ry="6" fill="#c98b4b"/><ellipse cx="320" cy="166" rx="8" ry="6" fill="#e7c07a"/><ellipse cx="334" cy="162" rx="8" ry="6" fill="#d9a55b"/><ellipse cx="348" cy="166" rx="8" ry="6" fill="#c98b4b"/><path d="M400 120l10 28h-20z" fill="#e9f2f4" stroke="#cfdfe4" stroke-width="2"/><path d="M400 148v20M390 170h20" stroke="#cfdfe4" stroke-width="3"/><path d="M428 124l10 28h-20z" fill="#e9f2f4" stroke="#cfdfe4" stroke-width="2"/><path d="M428 152v18M418 172h20" stroke="#cfdfe4" stroke-width="3"/><rect x="206" y="40" width="68" height="60" rx="30" fill="#e9dbc6"/><circle cx="224" cy="58" r="9" fill="#e8a0a0"/><circle cx="246" cy="52" r="9" fill="#f3d27c"/><circle cx="258" cy="70" r="9" fill="#e8a0a0"/><circle cx="234" cy="76" r="9" fill="#b9d6a0"/><path d="M80 0v24" stroke="#8a6b44" stroke-width="2"/><circle cx="80" cy="30" r="7" fill="#f3d27c"/><path d="M160 0v24" stroke="#8a6b44" stroke-width="2"/><circle cx="160" cy="30" r="7" fill="#f3d27c"/><path d="M320 0v24" stroke="#8a6b44" stroke-width="2"/><circle cx="320" cy="30" r="7" fill="#f3d27c"/><path d="M400 0v24" stroke="#8a6b44" stroke-width="2"/><circle cx="400" cy="30" r="7" fill="#f3d27c"/>
</svg>
