<svg xmlns="http://www.w3.org/2000/svg" viewBox="0 0 480 360" width="480" height="360">
  <!-- Quarto (ilustração própria, criada para os exemplos do configurador) -->
  <defs><linearGradient id="w" x1="0" y1="0" x2="0" y2="1"><stop offset="0" stop-color="#f4eee8"/><stop offset="1" stop-color="#ebe1d6"/></linearGradient><linearGradient id="f" x1="0" y1="0" x2="0" y2="1"><stop offset="0" stop-color="#b99a7c"/><stop offset="1" stop-color="#a4866a"/></linearGradient></defs>
<rect width="480" height="360" fill="url(#w)"/><rect y="262" width="480" height="98" fill="url(#f)"/><path d="M0 262h480" stroke="#00000022" stroke-width="3"/><rect x="300" y="50" width="140" height="120" rx="4" fill="#cfe3ea"/><path d="M370 50v120" stroke="#fff" stroke-width="6"/><path d="M290 44h160" stroke="#c9b6a2" stroke-width="8"/><rect x="60" y="170" width="240" height="96" rx="10" fill="#fdfbf7"/><rect x="60" y="150" width="70" height="120" rx="8" fill="#c7a98a"/><rect x="140" y="160" width="60" height="30" rx="10" fill="#e9eef6"/><rect x="210" y="160" width="60" height="30" rx="10" fill="#e9eef6"/><path d="M60 215h240" stroke="#7fa3c7" stroke-width="30"/><rect x="316" y="214" width="56" height="50" rx="4" fill="#8b6a4f"/><circle cx="344" cy="200" r="12" fill="#f3d27c"/>
</svg>
