<svg xmlns="http://www.w3.org/2000/svg" viewBox="0 0 480 360" width="480" height="360">
  <!-- Apartamento em condomínio (ilustração própria, criada para os exemplos do configurador) -->
  <defs><linearGradient id="s" x1="0" y1="0" x2="0" y2="1"><stop offset="0" stop-color="#cfe6f5"/><stop offset="1" stop-color="#eef6fb"/></linearGradient></defs>
<rect width="480" height="360" fill="url(#s)"/><circle cx="400" cy="70" r="30" fill="#fff4c9"/><rect y="270" width="480" height="90" fill="#8cbf6a"/><path d="M0 270h480" stroke="#6fa250" stroke-width="4"/><rect x="150" y="50" width="180" height="222" fill="#e7ecf2"/><rect x="150" y="50" width="180" height="14" fill="#c9d2dd"/><rect x="166" y="76" width="40" height="30" rx="3" fill="#a9d3ea"/><path d="M186.0 76v30M166 91.0h40" stroke="#fff" stroke-width="3"/><rect x="220" y="76" width="40" height="30" rx="3" fill="#a9d3ea"/><path d="M240.0 76v30M220 91.0h40" stroke="#fff" stroke-width="3"/><rect x="274" y="76" width="40" height="30" rx="3" fill="#a9d3ea"/><path d="M294.0 76v30M274 91.0h40" stroke="#fff" stroke-width="3"/><rect x="166" y="122" width="40" height="30" rx="3" fill="#a9d3ea"/><path d="M186.0 122v30M166 137.0h40" stroke="#fff" stroke-width="3"/><rect x="220" y="122" width="40" height="30" rx="3" fill="#a9d3ea"/><path d="M240.0 122v30M220 137.0h40" stroke="#fff" stroke-width="3"/><rect x="274" y="122" width="40" height="30" rx="3" fill="#a9d3ea"/><path d="M294.0 122v30M274 137.0h40" stroke="#fff" stroke-width="3"/><rect x="166" y="168" width="40" height="30" rx="3" fill="#a9d3ea"/><path d="M186.0 168v30M166 183.0h40" stroke="#fff" stroke-width="3"/><rect x="220" y="168" width="40" height="30" rx="3" fill="#a9d3ea"/><path d="M240.0 168v30M220 183.0h40" stroke="#fff" stroke-width="3"/><rect x="274" y="168" width="40" height="30" rx="3" fill="#a9d3ea"/><path d="M294.0 168v30M274 183.0h40" stroke="#fff" stroke-width="3"/><rect x="166" y="214" width="40" height="30" rx="3" fill="#a9d3ea"/><path d="M186.0 214v30M166 229.0h40" stroke="#fff" stroke-width="3"/><rect x="220" y="214" width="40" height="30" rx="3" fill="#a9d3ea"/><path d="M240.0 214v30M220 229.0h40" stroke="#fff" stroke-width="3"/><rect x="274" y="214" width="40" height="30" rx="3" fill="#a9d3ea"/><path d="M294.0 214v30M274 229.0h40" stroke="#fff" stroke-width="3"/><rect x="162" y="104" width="48" height="6" fill="#9aa8b8"/><rect x="216" y="104" width="48" height="6" fill="#9aa8b8"/><rect x="270" y="104" width="48" height="6" fill="#9aa8b8"/><rect x="162" y="150" width="48" height="6" fill="#9aa8b8"/><rect x="216" y="150" width="48" height="6" fill="#9aa8b8"/><rect x="270" y="150" width="48" height="6" fill="#9aa8b8"/><rect x="162" y="196" width="48" height="6" fill="#9aa8b8"/><rect x="216" y="196" width="48" height="6" fill="#9aa8b8"/><rect x="270" y="196" width="48" height="6" fill="#9aa8b8"/><rect x="162" y="242" width="48" height="6" fill="#9aa8b8"/><rect x="216" y="242" width="48" height="6" fill="#9aa8b8"/><rect x="270" y="242" width="48" height="6" fill="#9aa8b8"/><rect x="222" y="244" width="36" height="28" fill="#5b6b7d"/><rect x="40" y="140" width="96" height="132" fill="#dfe6ee"/><rect x="52" y="156" width="30" height="26" rx="3" fill="#a9d3ea"/><path d="M67.0 156v26M52 169.0h30" stroke="#fff" stroke-width="3"/><rect x="92" y="156" width="30" height="26" rx="3" fill="#a9d3ea"/><path d="M107.0 156v26M92 169.0h30" stroke="#fff" stroke-width="3"/><rect x="52" y="196" width="30" height="26" rx="3" fill="#a9d3ea"/><path d="M67.0 196v26M52 209.0h30" stroke="#fff" stroke-width="3"/><rect x="92" y="196" width="30" height="26" rx="3" fill="#a9d3ea"/><path d="M107.0 196v26M92 209.0h30" stroke="#fff" stroke-width="3"/><rect x="52" y="236" width="30" height="26" rx="3" fill="#a9d3ea"/><path d="M67.0 236v26M52 249.0h30" stroke="#fff" stroke-width="3"/><rect x="92" y="236" width="30" height="26" rx="3" fill="#a9d3ea"/><path d="M107.0 236v26M92 249.0h30" stroke="#fff" stroke-width="3"/><rect x="344" y="120" width="100" height="152" fill="#d7dfe9"/><rect x="356" y="136" width="32" height="26" rx="3" fill="#a9d3ea"/><path d="M372.0 136v26M356 149.0h32" stroke="#fff" stroke-width="3"/><rect x="398" y="136" width="32" height="26" rx="3" fill="#a9d3ea"/><path d="M414.0 136v26M398 149.0h32" stroke="#fff" stroke-width="3"/><rect x="356" y="176" width="32" height="26" rx="3" fill="#a9d3ea"/><path d="M372.0 176v26M356 189.0h32" stroke="#fff" stroke-width="3"/><rect x="398" y="176" width="32" height="26" rx="3" fill="#a9d3ea"/><path d="M414.0 176v26M398 189.0h32" stroke="#fff" stroke-width="3"/><rect x="356" y="216" width="32" height="26" rx="3" fill="#a9d3ea"/><path d="M372.0 216v26M356 229.0h32" stroke="#fff" stroke-width="3"/><rect x="398" y="216" width="32" height="26" rx="3" fill="#a9d3ea"/><path d="M414.0 216v26M398 229.0h32" stroke="#fff" stroke-width="3"/><g fill="#5d9644"><circle cx="140" cy="262" r="16"/><circle cx="340" cy="262" r="16"/></g>
</svg>
