<svg xmlns="http://www.w3.org/2000/svg" viewBox="0 0 480 360" width="480" height="360">
  <!-- Pequeno negócio: fachada de loja com vitrine (ilustração própria) -->
  <defs>
    <linearGradient id="s" x1="0" y1="0" x2="0" y2="1"><stop offset="0" stop-color="#d9e7f2"/><stop offset="1" stop-color="#eef3f7"/></linearGradient>
  </defs>
  <rect width="480" height="360" fill="url(#s)"/>
  <rect y="300" width="480" height="60" fill="#c9ccd1"/>
  <!-- prédio -->
  <rect x="70" y="60" width="340" height="240" fill="#f4efe7"/>
  <rect x="70" y="60" width="340" height="18" fill="#e3dbcf"/>
  <!-- toldo -->
  <path d="M60 110h360l-14 40H74z" fill="#2f5d8a"/>
  <path d="M100 110l-8 40M150 110l-6 40M200 110l-3 40M250 110v40M300 110l3 40M350 110l6 40M400 110l8 40" stroke="#f4efe7" stroke-width="10" opacity=".85"/>
  <!-- placa -->
  <rect x="170" y="80" width="140" height="24" rx="4" fill="#2f5d8a"/>
  <rect x="190" y="89" width="100" height="6" rx="3" fill="#f4efe7"/>
  <!-- vitrine -->
  <rect x="96" y="164" width="170" height="120" rx="4" fill="#bcd3e6" stroke="#8a7a66" stroke-width="5"/>
  <rect x="116" y="232" width="40" height="44" rx="4" fill="#e0a526"/><rect x="164" y="212" width="36" height="64" rx="4" fill="#c94f3d"/><rect x="208" y="240" width="40" height="36" rx="4" fill="#5f8f6e"/>
  <path d="M110 176l40 0" stroke="#fff" stroke-width="5" opacity=".7"/>
  <!-- porta -->
  <rect x="290" y="164" width="92" height="136" rx="4" fill="#8a7a66"/>
  <rect x="302" y="176" width="68" height="70" rx="3" fill="#bcd3e6"/>
  <circle cx="366" cy="262" r="5" fill="#e0a526"/>
  <!-- vasos -->
  <path d="M40 300h30l-4-30h-22z" fill="#b58c67"/><g fill="#6f9a7a"><circle cx="55" cy="258" r="16"/><circle cx="46" cy="246" r="10"/></g>
  <path d="M410 300h30l-4-30h-22z" fill="#b58c67"/><g fill="#6f9a7a"><circle cx="425" cy="258" r="16"/><circle cx="434" cy="246" r="10"/></g>
</svg>
