<svg xmlns="http://www.w3.org/2000/svg" viewBox="0 0 480 360" width="480" height="360">
  <!-- Balcão de pães e doces (ilustração própria, criada para os exemplos do configurador) -->
  <defs><linearGradient id="w" x1="0" y1="0" x2="0" y2="1"><stop offset="0" stop-color="#f6ede1"/><stop offset="1" stop-color="#eadcc8"/></linearGradient><linearGradient id="f" x1="0" y1="0" x2="0" y2="1"><stop offset="0" stop-color="#a8784e"/><stop offset="1" stop-color="#8d6240"/></linearGradient></defs>
<rect width="480" height="360" fill="url(#w)"/><rect y="262" width="480" height="98" fill="url(#f)"/><path d="M0 262h480" stroke="#00000022" stroke-width="3"/><rect x="30" y="170" width="420" height="92" rx="6" fill="#6f4a30"/><rect x="30" y="160" width="420" height="16" rx="4" fill="#8f6440"/><rect x="60" y="120" width="360" height="44" rx="8" fill="#e9f2f4" opacity=".9"/><ellipse cx="100" cy="150" rx="22" ry="12" fill="#c98b4b"/><ellipse cx="150" cy="150" rx="22" ry="12" fill="#d9a55b"/><ellipse cx="200" cy="150" rx="22" ry="12" fill="#b9793f"/><ellipse cx="250" cy="150" rx="22" ry="12" fill="#e7c07a"/><ellipse cx="300" cy="150" rx="22" ry="12" fill="#c98b4b"/><ellipse cx="350" cy="150" rx="22" ry="12" fill="#a86a34"/><ellipse cx="395" cy="150" rx="22" ry="12" fill="#d9a55b"/><rect x="70" y="40" width="340" height="56" rx="6" fill="#fff"/><text x="240" y="77" font-family="Georgia,serif" font-size="24" fill="#6f4a30" text-anchor="middle">Padaria · Café</text>
</svg>
