<svg xmlns="http://www.w3.org/2000/svg" viewBox="0 0 480 360" width="480" height="360">
  <!-- Mesa de tosa com cachorro, secador e pente (ilustração própria, criada para as prévias do configurador) -->
  <defs><linearGradient id="w" x1="0" y1="0" x2="0" y2="1"><stop offset="0" stop-color="#f4eff8"/><stop offset="1" stop-color="#ebe3f2"/></linearGradient><linearGradient id="f" x1="0" y1="0" x2="0" y2="1"><stop offset="0" stop-color="#d5ccdd"/><stop offset="1" stop-color="#c3b8cd"/></linearGradient></defs>
<rect width="480" height="360" fill="url(#w)"/><rect y="262" width="480" height="98" fill="url(#f)"/><path d="M0 262h480" stroke="#00000018" stroke-width="3"/><rect x="64" y="200" width="250" height="14" rx="7" fill="#6d6a86"/><rect x="180" y="214" width="16" height="52" fill="#8b88a3"/><rect x="140" y="262" width="96" height="8" rx="4" fill="#8b88a3"/><path d="M300 60v60q0 20-20 20h-20" stroke="#8b88a3" stroke-width="6" fill="none"/><path d="M250 128h14v24h-14z" fill="#8b88a3"/><g transform="translate(120 46) scale(0.98)"><path d="M58 70q40-6 46 40q2 26-6 40H34q-8-22-4-44q6-34 28-36z" fill="#f1f1ec"/><path d="M100 120q26 2 26-24" stroke="#c9c6bd" stroke-width="10" fill="none" stroke-linecap="round"/><rect x="40" y="130" width="16" height="24" rx="7" fill="#f1f1ec"/><rect x="70" y="130" width="16" height="24" rx="7" fill="#f1f1ec"/><circle cx="50" cy="44" r="34" fill="#f1f1ec"/><path d="M22 22q-18 6-14 42q14 2 22-14z" fill="#c9c6bd"/><path d="M76 20q18 4 16 40q-14 4-20-12z" fill="#c9c6bd"/><ellipse cx="50" cy="58" rx="18" ry="13" fill="#f3d8b4"/><ellipse cx="50" cy="51" rx="7" ry="5" fill="#3b2f2a"/><circle cx="38" cy="38" r="4" fill="#3b2f2a"/><circle cx="62" cy="38" r="4" fill="#3b2f2a"/></g><rect x="372" y="120" width="12" height="142" fill="#9a97b1"/><rect x="350" y="262" width="56" height="8" rx="4" fill="#9a97b1"/><rect x="346" y="94" width="66" height="36" rx="18" fill="#c7a4d8"/><rect x="330" y="104" width="22" height="16" rx="4" fill="#ab86bf"/><path d="M320 112q-14-6-24 0M320 118q-18 0-30 8" stroke="#d9c7e4" stroke-width="4" fill="none" stroke-linecap="round"/><rect x="238" y="186" width="54" height="10" rx="3" fill="#e8c56f"/><path d="M242 196v8" stroke="#e8c56f" stroke-width="3"/><path d="M248 196v8" stroke="#e8c56f" stroke-width="3"/><path d="M254 196v8" stroke="#e8c56f" stroke-width="3"/><path d="M260 196v8" stroke="#e8c56f" stroke-width="3"/><path d="M266 196v8" stroke="#e8c56f" stroke-width="3"/><path d="M272 196v8" stroke="#e8c56f" stroke-width="3"/><path d="M278 196v8" stroke="#e8c56f" stroke-width="3"/><path d="M284 196v8" stroke="#e8c56f" stroke-width="3"/><g transform="translate(80 172) rotate(-20)"><circle cx="0" cy="0" r="8" fill="none" stroke="#6d6a86" stroke-width="4"/><circle cx="0" cy="22" r="8" fill="none" stroke="#6d6a86" stroke-width="4"/><path d="M6 4l34 12M6 18l34-6" stroke="#9a97b1" stroke-width="4" stroke-linecap="round"/></g>
</svg>
