<svg xmlns="http://www.w3.org/2000/svg" viewBox="0 0 480 360" width="480" height="360">
  <!-- Consultório veterinário: cachorro tranquilo sobre a mesa de atendimento (ilustração própria, criada para as prévias do configurador) -->
  <defs><linearGradient id="w" x1="0" y1="0" x2="0" y2="1"><stop offset="0" stop-color="#eef5f4"/><stop offset="1" stop-color="#e2eeec"/></linearGradient><linearGradient id="f" x1="0" y1="0" x2="0" y2="1"><stop offset="0" stop-color="#c9d6d3"/><stop offset="1" stop-color="#b7c7c3"/></linearGradient></defs>
<rect width="480" height="360" fill="url(#w)"/><rect y="262" width="480" height="98" fill="url(#f)"/><path d="M0 262h480" stroke="#00000018" stroke-width="3"/><rect x="330" y="70" width="110" height="150" rx="6" fill="#ffffff" stroke="#cfdcd9" stroke-width="3"/><path d="M330 120h110M330 170h110" stroke="#cfdcd9" stroke-width="3"/><rect x="344" y="86" width="14" height="26" rx="4" fill="#9cc9c2"/><rect x="368" y="86" width="14" height="26" rx="4" fill="#f2c26b"/><rect x="392" y="86" width="14" height="26" rx="4" fill="#b8d4ef"/><rect x="416" y="86" width="14" height="26" rx="4" fill="#9cc9c2"/><rect x="344" y="136" width="14" height="26" rx="4" fill="#e7b0a6"/><rect x="368" y="136" width="14" height="26" rx="4" fill="#9cc9c2"/><rect x="392" y="136" width="14" height="26" rx="4" fill="#f2c26b"/><rect x="416" y="136" width="14" height="26" rx="4" fill="#c9d6f0"/><rect x="344" y="186" width="82" height="22" rx="4" fill="#e2eeec"/><rect x="60" y="54" width="92" height="70" rx="8" fill="#ffffff" stroke="#cfdcd9" stroke-width="3"/><path d="M106 70v38M87 89h38" stroke="#2f8f86" stroke-width="10" stroke-linecap="round"/><path d="M292 48v10" stroke="#8a9a98" stroke-width="4"/><circle cx="292" cy="62" r="5" fill="#8a9a98"/><path d="M280 66q-6 40 12 52q18-12 12-52" stroke="#2f5d62" stroke-width="5" fill="none"/><path d="M292 118q0 30 -4 44" stroke="#2f5d62" stroke-width="5" fill="none"/><circle cx="288" cy="170" r="9" fill="#9aa9a7" stroke="#2f5d62" stroke-width="4"/><rect x="70" y="214" width="230" height="16" rx="6" fill="#dfe8e6"/><rect x="70" y="206" width="230" height="12" rx="6" fill="#f7fbfa" stroke="#cfdcd9" stroke-width="2"/><rect x="100" y="230" width="14" height="36" fill="#9aa9a7"/><rect x="256" y="230" width="14" height="36" fill="#9aa9a7"/><g transform="translate(130 52) scale(1.0)"><path d="M58 70q40-6 46 40q2 26-6 40H34q-8-22-4-44q6-34 28-36z" fill="#d9a066"/><path d="M100 120q26 2 26-24" stroke="#a8703e" stroke-width="10" fill="none" stroke-linecap="round"/><rect x="40" y="130" width="16" height="24" rx="7" fill="#d9a066"/><rect x="70" y="130" width="16" height="24" rx="7" fill="#d9a066"/><circle cx="50" cy="44" r="34" fill="#d9a066"/><path d="M22 22q-18 6-14 42q14 2 22-14z" fill="#a8703e"/><path d="M76 20q18 4 16 40q-14 4-20-12z" fill="#a8703e"/><ellipse cx="50" cy="58" rx="18" ry="13" fill="#f3d8b4"/><ellipse cx="50" cy="51" rx="7" ry="5" fill="#3b2f2a"/><circle cx="38" cy="38" r="4" fill="#3b2f2a"/><circle cx="62" cy="38" r="4" fill="#3b2f2a"/></g>
</svg>
