<svg xmlns="http://www.w3.org/2000/svg" viewBox="0 0 480 360" width="480" height="360">
  <!-- Carteira de vacinação e seringa sobre a mesa (ilustração própria, criada para as prévias do configurador) -->
  <defs><linearGradient id="t" x1="0" y1="0" x2="0" y2="1"><stop offset="0" stop-color="#f2f8f7"/><stop offset="1" stop-color="#e6f0ee"/></linearGradient></defs>
<rect width="480" height="360" fill="url(#t)"/><rect y="250" width="480" height="110" fill="#d7e6e3"/><g transform="rotate(-6 200 180)"><rect x="96" y="92" width="200" height="150" rx="10" fill="#ffffff" stroke="#bcd3cf" stroke-width="3"/><rect x="96" y="92" width="200" height="36" rx="10" fill="#2f8f86"/><rect x="96" y="116" width="200" height="12" fill="#2f8f86"/><text x="196" y="116" font-family="Arial,sans-serif" font-size="15" font-weight="700" fill="#fff" text-anchor="middle">Vacinação</text><path d="M116 150h110" stroke="#dbe7e5" stroke-width="6" stroke-linecap="round"/><rect x="238" y="142" width="40" height="16" rx="3" fill="#e9f3f1" stroke="#bcd3cf" stroke-width="2"/><path d="M116 174h110" stroke="#dbe7e5" stroke-width="6" stroke-linecap="round"/><rect x="238" y="166" width="40" height="16" rx="3" fill="#e9f3f1" stroke="#bcd3cf" stroke-width="2"/><path d="M116 198h110" stroke="#dbe7e5" stroke-width="6" stroke-linecap="round"/><rect x="238" y="190" width="40" height="16" rx="3" fill="#e9f3f1" stroke="#bcd3cf" stroke-width="2"/><path d="M116 222h110" stroke="#dbe7e5" stroke-width="6" stroke-linecap="round"/><rect x="238" y="214" width="40" height="16" rx="3" fill="#e9f3f1" stroke="#bcd3cf" stroke-width="2"/></g><g transform="rotate(28 360 190)"><rect x="300" y="178" width="110" height="26" rx="6" fill="#e9f3f7" stroke="#8fb3c8" stroke-width="3"/><rect x="306" y="183" width="60" height="16" rx="3" fill="#b8dcef"/><rect x="410" y="186" width="20" height="10" fill="#8fb3c8"/><path d="M430 191h26" stroke="#8a9a98" stroke-width="3"/><rect x="282" y="182" width="18" height="18" rx="3" fill="#8fb3c8"/><path d="M270 191h12" stroke="#8fb3c8" stroke-width="8"/></g><rect x="352" y="70" width="70" height="46" rx="8" fill="#ffffff" stroke="#bcd3cf" stroke-width="3"/><path d="M372 93h30M387 78v30" stroke="#2f8f86" stroke-width="6" stroke-linecap="round"/>
</svg>
