<svg xmlns="http://www.w3.org/2000/svg" viewBox="0 0 480 360" width="480" height="360">
  <!-- Sopa do dia (ilustração própria, criada para os exemplos do configurador) -->
  <defs><linearGradient id="t" x1="0" y1="0" x2="0" y2="1"><stop offset="0" stop-color="#e3d6c6"/><stop offset="1" stop-color="#cbb89f"/></linearGradient><radialGradient id="p" cx=".5" cy=".45" r=".55"><stop offset="0" stop-color="#ffffff"/><stop offset="1" stop-color="#ece6dc"/></radialGradient></defs>
<rect width="480" height="360" fill="url(#t)"/><path d="M0 72h480M0 162h480M0 252h480" stroke="#cbb89f" stroke-width="3" opacity=".35"/><rect x="58" y="110" width="9" height="150" rx="4" fill="#a7aeb4"/><path d="M50 110v36a13 13 0 0 0 26 0v-36" fill="none" stroke="#a7aeb4" stroke-width="5"/><rect x="414" y="110" width="9" height="150" rx="4" fill="#a7aeb4"/><path d="M418 110c16 12 16 44 0 56z" fill="#a7aeb4"/><ellipse cx="246" cy="190" rx="118" ry="113.28" fill="#000" opacity=".12"/><circle cx="240" cy="180" r="118" fill="url(#p)" stroke="#ece6dc" stroke-width="3"/><circle cx="240" cy="180" r="84.96" fill="#fbf8f2"/><circle cx="240" cy="180" r="74" fill="#e08a3c"/><circle cx="240" cy="180" r="74" fill="none" stroke="#c96e25" stroke-width="4"/><path d="M205 170c15 8 30 8 45 0s30-8 45 0" stroke="#fff4e0" stroke-width="5" fill="none" opacity=".8"/><ellipse cx="228" cy="190" rx="13" ry="7" fill="#4f8a3c" transform="rotate(20 228 190)"/><ellipse cx="254" cy="196" rx="13" ry="7" fill="#4f8a3c" transform="rotate(-40 254 196)"/><ellipse cx="242" cy="168" rx="13" ry="7" fill="#4f8a3c" transform="rotate(70 242 168)"/><g fill="#f7d9a6"><rect x="200" y="196" width="12" height="12" rx="3"/><rect x="266" y="160" width="12" height="12" rx="3"/></g>
</svg>
