<svg xmlns="http://www.w3.org/2000/svg" viewBox="0 0 480 360" width="480" height="360">
  <!-- Torta de limão (ilustração própria, criada para os exemplos do configurador) -->
  <defs><linearGradient id="t" x1="0" y1="0" x2="0" y2="1"><stop offset="0" stop-color="#f1e6d8"/><stop offset="1" stop-color="#dfcdb6"/></linearGradient><radialGradient id="p" cx=".5" cy=".45" r=".55"><stop offset="0" stop-color="#ffffff"/><stop offset="1" stop-color="#ece6dc"/></radialGradient></defs>
<rect width="480" height="360" fill="url(#t)"/><path d="M0 72h480M0 162h480M0 252h480" stroke="#dfcdb6" stroke-width="3" opacity=".35"/><rect x="58" y="110" width="9" height="150" rx="4" fill="#a7aeb4"/><path d="M50 110v36a13 13 0 0 0 26 0v-36" fill="none" stroke="#a7aeb4" stroke-width="5"/><rect x="414" y="110" width="9" height="150" rx="4" fill="#a7aeb4"/><path d="M418 110c16 12 16 44 0 56z" fill="#a7aeb4"/><ellipse cx="246" cy="190" rx="118" ry="113.28" fill="#000" opacity=".12"/><circle cx="240" cy="180" r="118" fill="url(#p)" stroke="#ece6dc" stroke-width="3"/><circle cx="240" cy="180" r="84.96" fill="#fbf8f2"/><path d="M170 215l70-95 75 95z" fill="#d9a55b"/><path d="M178 205l62-82 67 82z" fill="#f4e27a"/><path d="M170 215h145v18H170z" fill="#c68e46"/><path d="M185 175c10-25 30-45 55-52 25 7 45 27 55 52-20-10-35-12-55-12s-35 2-55 12z" fill="#fffaf0"/><circle cx="300" cy="150" r="16" fill="#b8d65a"/><circle cx="300" cy="150" r="10" fill="#e3f19a"/><ellipse cx="282" cy="138" rx="13" ry="7" fill="#5a9444" transform="rotate(-30 282 138)"/>
</svg>
